<?xml version="1.0" standalone="no"?>
<!DOCTYPE svg PUBLIC "-//W3C//DTD SVG 20010904//EN"
 "http://www.w3.org/TR/2001/REC-SVG-20010904/DTD/svg10.dtd">
<svg version="1.0" xmlns="http://www.w3.org/2000/svg"
 width="225.000000pt" height="225.000000pt" viewBox="0 0 225.000000 225.000000"
 preserveAspectRatio="xMidYMid meet">
<metadata>
Created by potrace 1.14, written by Peter Selinger 2001-2017
</metadata>
<g transform="translate(0.000000,225.000000) scale(0.100000,-0.100000)"
fill="#000000" stroke="none">
<path d="M367 1970 c-135 -34 -227 -144 -235 -282 -9 -145 75 -269 207 -309
47 -14 46 -7 17 -114 -52 -189 -18 -421 86 -600 25 -42 77 -106 133 -162 80
-80 105 -97 196 -141 130 -63 230 -86 369 -85 416 4 751 320 786 743 8 88 -8
213 -35 293 l-19 53 47 17 c61 21 112 61 149 117 43 64 55 112 50 190 -9 117
-71 209 -176 257 -144 67 -329 0 -398 -145 -8 -18 -21 -31 -27 -28 -192 83
-275 101 -427 93 -117 -6 -221 -32 -309 -77 l-58 -29 -13 37 c-19 54 -106 136
-165 155 -66 22 -131 28 -178 17z m115 -140 c44 -13 103 -75 113 -120 6 -29 2
-37 -37 -79 -25 -25 -60 -66 -78 -90 -31 -40 -36 -43 -72 -38 -46 6 -102 46
-124 89 -22 43 -20 121 6 162 26 43 41 55 87 72 46 16 58 17 105 4z m1399 -6
c62 -26 99 -82 99 -154 0 -71 -27 -116 -90 -147 -60 -31 -82 -29 -104 8 -10
17 -45 59 -78 94 -58 63 -59 65 -49 98 20 59 94 114 158 116 13 1 41 -6 64
-15z m-625 -604 c114 -39 212 -139 249 -255 12 -40 16 -79 13 -138 -16 -373
-483 -512 -710 -212 -54 71 -73 133 -72 235 1 110 27 180 96 255 55 60 114
100 181 120 65 21 174 18 243 -5z"/>
<path d="M961 1074 c-12 -15 -21 -33 -21 -42 0 -16 75 -92 123 -127 26 -18 29
-26 30 -84 l2 -65 -37 -11 c-52 -15 -67 -31 -46 -51 15 -16 20 -16 68 0 28 9
56 14 62 10 49 -30 128 -15 99 20 -7 9 -19 16 -27 16 -7 0 -25 5 -40 12 -25
12 -26 15 -21 73 5 51 9 63 34 80 48 34 123 111 123 127 0 9 -9 27 -21 42 -20
26 -21 26 -164 26 -143 0 -144 0 -164 -26z"/>
</g>
</svg>
